<mxfile host="65bd71144e">
    <diagram id="iyAkXt3VjwqdQJ2o4eM7" name="Page-1">
        <mxGraphModel dx="1806" dy="789" grid="1" gridSize="10" guides="1" tooltips="1" connect="1" arrows="1" fold="1" page="1" pageScale="1" pageWidth="850" pageHeight="1100" math="0" shadow="0">
            <root>
                <mxCell id="0"/>
                <mxCell id="1" parent="0"/>
                <mxCell id="49" style="edgeStyle=none;hachureGap=4;html=1;entryX=0.5;entryY=1;entryDx=0;entryDy=0;fontFamily=Helvetica;fontSize=15;shadow=0;" parent="1" source="4" target="18" edge="1">
                    <mxGeometry relative="1" as="geometry"/>
                </mxCell>
                <mxCell id="50" style="edgeStyle=none;hachureGap=4;html=1;entryX=0.5;entryY=1;entryDx=0;entryDy=0;fontFamily=Helvetica;fontSize=15;shadow=0;" parent="1" source="4" target="16" edge="1">
                    <mxGeometry relative="1" as="geometry"/>
                </mxCell>
                <mxCell id="52" style="edgeStyle=none;hachureGap=4;html=1;entryX=0.5;entryY=1;entryDx=0;entryDy=0;fontFamily=Helvetica;fontSize=15;shadow=0;" parent="1" source="4" target="14" edge="1">
                    <mxGeometry relative="1" as="geometry"/>
                </mxCell>
                <mxCell id="53" style="edgeStyle=none;hachureGap=4;html=1;entryX=0.5;entryY=1;entryDx=0;entryDy=0;fontFamily=Helvetica;fontSize=15;shadow=0;" parent="1" source="4" target="13" edge="1">
                    <mxGeometry relative="1" as="geometry"/>
                </mxCell>
                <mxCell id="54" style="edgeStyle=none;hachureGap=4;html=1;entryX=0.592;entryY=1.057;entryDx=0;entryDy=0;entryPerimeter=0;fontFamily=Helvetica;fontSize=15;shadow=0;" parent="1" source="4" target="12" edge="1">
                    <mxGeometry relative="1" as="geometry"/>
                </mxCell>
                <mxCell id="55" style="edgeStyle=none;hachureGap=4;html=1;fontFamily=Helvetica;fontSize=15;shadow=0;" parent="1" source="4" target="15" edge="1">
                    <mxGeometry relative="1" as="geometry"/>
                </mxCell>
                <mxCell id="56" style="edgeStyle=none;hachureGap=4;html=1;entryX=1;entryY=1;entryDx=0;entryDy=0;fontFamily=Helvetica;fontSize=15;shadow=0;" parent="1" source="4" target="17" edge="1">
                    <mxGeometry relative="1" as="geometry"/>
                </mxCell>
                <mxCell id="58" style="edgeStyle=none;hachureGap=4;html=1;entryX=1;entryY=0.5;entryDx=0;entryDy=0;fontFamily=Helvetica;fontSize=15;shadow=0;" parent="1" source="4" target="57" edge="1">
                    <mxGeometry relative="1" as="geometry"/>
                </mxCell>
                <mxCell id="118" style="edgeStyle=none;hachureGap=4;html=1;entryX=0.5;entryY=1;entryDx=0;entryDy=0;fontFamily=Helvetica;fontSize=16;shadow=0;" parent="1" source="4" target="117" edge="1">
                    <mxGeometry relative="1" as="geometry"/>
                </mxCell>
                <mxCell id="4" value="user" style="rounded=1;whiteSpace=wrap;html=1;hachureGap=4;fontFamily=Helvetica;fontSize=20;shadow=0;" parent="1" vertex="1">
                    <mxGeometry x="290" y="340" width="120" height="60" as="geometry"/>
                </mxCell>
                <mxCell id="5" value="have" style="rhombus;whiteSpace=wrap;html=1;hachureGap=4;fontFamily=Helvetica;fontSize=20;rounded=1;shadow=0;" parent="1" vertex="1">
                    <mxGeometry x="310" y="460" width="80" height="80" as="geometry"/>
                </mxCell>
                <mxCell id="62" style="edgeStyle=none;hachureGap=4;html=1;entryX=0.25;entryY=0.875;entryDx=0;entryDy=0;entryPerimeter=0;fontFamily=Helvetica;fontSize=15;shadow=0;exitX=1;exitY=0.5;exitDx=0;exitDy=0;" parent="1" source="6" target="26" edge="1">
                    <mxGeometry relative="1" as="geometry"/>
                </mxCell>
                <mxCell id="63" style="edgeStyle=none;hachureGap=4;html=1;fontFamily=Helvetica;fontSize=15;shadow=0;exitX=1;exitY=0.5;exitDx=0;exitDy=0;" parent="1" source="6" target="29" edge="1">
                    <mxGeometry relative="1" as="geometry"/>
                </mxCell>
                <mxCell id="64" style="edgeStyle=none;hachureGap=4;html=1;entryX=0;entryY=0.5;entryDx=0;entryDy=0;fontFamily=Helvetica;fontSize=15;shadow=0;exitX=1;exitY=0.5;exitDx=0;exitDy=0;" parent="1" source="6" target="27" edge="1">
                    <mxGeometry relative="1" as="geometry">
                        <Array as="points"/>
                    </mxGeometry>
                </mxCell>
                <mxCell id="6" value="plant" style="rounded=1;whiteSpace=wrap;html=1;hachureGap=4;fontFamily=Helvetica;fontSize=20;shadow=0;" parent="1" vertex="1">
                    <mxGeometry x="295" y="630" width="110" height="50" as="geometry"/>
                </mxCell>
                <mxCell id="9" value="1" style="text;html=1;align=center;verticalAlign=middle;resizable=0;points=[];autosize=1;strokeColor=none;fillColor=none;fontSize=20;fontFamily=Helvetica;hachureGap=4;rounded=1;shadow=0;" parent="1" vertex="1">
                    <mxGeometry x="350" y="400" width="30" height="40" as="geometry"/>
                </mxCell>
                <mxCell id="10" value="M" style="text;html=1;align=center;verticalAlign=middle;resizable=0;points=[];autosize=1;strokeColor=none;fillColor=none;fontSize=20;fontFamily=Helvetica;hachureGap=4;rounded=1;shadow=0;" parent="1" vertex="1">
                    <mxGeometry x="360" y="590" width="40" height="40" as="geometry"/>
                </mxCell>
                <mxCell id="12" value="firstName" style="ellipse;whiteSpace=wrap;html=1;hachureGap=4;fontFamily=Helvetica;fontSize=20;rounded=1;shadow=0;" parent="1" vertex="1">
                    <mxGeometry x="185" y="35" width="120" height="80" as="geometry"/>
                </mxCell>
                <mxCell id="13" value="email" style="ellipse;whiteSpace=wrap;html=1;hachureGap=4;fontFamily=Helvetica;fontSize=20;rounded=1;shadow=0;" parent="1" vertex="1">
                    <mxGeometry x="450" y="60" width="120" height="80" as="geometry"/>
                </mxCell>
                <mxCell id="14" value="role" style="ellipse;whiteSpace=wrap;html=1;hachureGap=4;fontFamily=Helvetica;fontSize=20;rounded=1;shadow=0;" parent="1" vertex="1">
                    <mxGeometry x="570" y="110" width="120" height="80" as="geometry"/>
                </mxCell>
                <mxCell id="15" value="password" style="ellipse;whiteSpace=wrap;html=1;hachureGap=4;fontFamily=Helvetica;fontSize=20;rounded=1;shadow=0;" parent="1" vertex="1">
                    <mxGeometry x="50" y="40" width="120" height="80" as="geometry"/>
                </mxCell>
                <mxCell id="16" value="address" style="ellipse;whiteSpace=wrap;html=1;hachureGap=4;fontFamily=Helvetica;fontSize=20;rounded=1;shadow=0;" parent="1" vertex="1">
                    <mxGeometry x="680" y="160" width="120" height="80" as="geometry"/>
                </mxCell>
                <mxCell id="17" value="verified" style="ellipse;whiteSpace=wrap;html=1;hachureGap=4;fontFamily=Helvetica;fontSize=20;rounded=1;shadow=0;" parent="1" vertex="1">
                    <mxGeometry x="-60" y="110" width="120" height="80" as="geometry"/>
                </mxCell>
                <mxCell id="18" value="userId" style="ellipse;whiteSpace=wrap;html=1;hachureGap=4;fontFamily=Helvetica;fontSize=20;strokeColor=#990000;shadow=0;" parent="1" vertex="1">
                    <mxGeometry x="730" y="250" width="130" height="80" as="geometry"/>
                </mxCell>
                <mxCell id="26" value="&lt;span style=&quot;font-size: 15px;&quot;&gt;humidity&lt;/span&gt;" style="ellipse;whiteSpace=wrap;html=1;hachureGap=4;fontFamily=Helvetica;fontSize=20;shadow=0;" parent="1" vertex="1">
                    <mxGeometry x="500" y="470" width="120" height="80" as="geometry"/>
                </mxCell>
                <mxCell id="27" value="status" style="ellipse;whiteSpace=wrap;html=1;hachureGap=4;fontFamily=Helvetica;fontSize=20;shadow=0;" parent="1" vertex="1">
                    <mxGeometry x="500" y="670" width="120" height="80" as="geometry"/>
                </mxCell>
                <mxCell id="28" value="&lt;font style=&quot;font-size: 15px;&quot;&gt;description&lt;/font&gt;" style="ellipse;whiteSpace=wrap;html=1;hachureGap=4;fontFamily=Helvetica;fontSize=20;shadow=0;" parent="1" vertex="1">
                    <mxGeometry x="-160" y="1005" width="100" height="65" as="geometry"/>
                </mxCell>
                <mxCell id="29" value="plant_id" style="ellipse;whiteSpace=wrap;html=1;hachureGap=4;fontFamily=Helvetica;fontSize=20;strokeColor=#990000;shadow=0;" parent="1" vertex="1">
                    <mxGeometry x="500" y="570" width="120" height="80" as="geometry"/>
                </mxCell>
                <mxCell id="69" style="edgeStyle=none;hachureGap=4;html=1;entryX=0.5;entryY=0;entryDx=0;entryDy=0;fontFamily=Helvetica;fontSize=15;fontColor=#990000;shadow=0;" parent="1" source="36" target="44" edge="1">
                    <mxGeometry relative="1" as="geometry"/>
                </mxCell>
                <mxCell id="70" style="edgeStyle=none;hachureGap=4;html=1;entryX=0.5;entryY=0;entryDx=0;entryDy=0;fontFamily=Helvetica;fontSize=15;fontColor=#990000;shadow=0;" parent="1" source="36" target="28" edge="1">
                    <mxGeometry relative="1" as="geometry"/>
                </mxCell>
                <mxCell id="71" style="edgeStyle=none;hachureGap=4;html=1;entryX=0.5;entryY=0;entryDx=0;entryDy=0;fontFamily=Helvetica;fontSize=15;fontColor=#990000;shadow=0;" parent="1" source="36" target="45" edge="1">
                    <mxGeometry relative="1" as="geometry"/>
                </mxCell>
                <mxCell id="36" value="system" style="rounded=1;whiteSpace=wrap;html=1;hachureGap=4;fontFamily=Helvetica;fontSize=15;shadow=0;" parent="1" vertex="1">
                    <mxGeometry x="50" y="860" width="120" height="60" as="geometry"/>
                </mxCell>
                <mxCell id="37" value="has" style="rhombus;whiteSpace=wrap;html=1;hachureGap=4;fontFamily=Helvetica;fontSize=15;shadow=0;" parent="1" vertex="1">
                    <mxGeometry x="310" y="850" width="80" height="80" as="geometry"/>
                </mxCell>
                <mxCell id="44" value="amount_water" style="ellipse;whiteSpace=wrap;html=1;hachureGap=4;fontFamily=Helvetica;fontSize=15;shadow=0;" parent="1" vertex="1">
                    <mxGeometry x="-50" y="1002.5" width="100" height="70" as="geometry"/>
                </mxCell>
                <mxCell id="45" value="system_id" style="ellipse;whiteSpace=wrap;html=1;hachureGap=4;fontFamily=Helvetica;fontSize=15;strokeColor=#990000;shadow=0;" parent="1" vertex="1">
                    <mxGeometry x="-280" y="1005" width="100" height="65" as="geometry"/>
                </mxCell>
                <mxCell id="57" value="userImg" style="ellipse;whiteSpace=wrap;html=1;hachureGap=4;fontFamily=Helvetica;fontSize=20;rounded=1;shadow=0;" parent="1" vertex="1">
                    <mxGeometry x="-130" y="210" width="120" height="80" as="geometry"/>
                </mxCell>
                <mxCell id="59" value="" style="endArrow=none;html=1;hachureGap=4;fontFamily=Helvetica;fontSize=15;entryX=0.5;entryY=1;entryDx=0;entryDy=0;exitX=0.5;exitY=0;exitDx=0;exitDy=0;shadow=0;" parent="1" source="5" target="4" edge="1">
                    <mxGeometry width="50" height="50" relative="1" as="geometry">
                        <mxPoint x="360" y="470" as="sourcePoint"/>
                        <mxPoint x="480" y="840" as="targetPoint"/>
                    </mxGeometry>
                </mxCell>
                <mxCell id="60" value="" style="endArrow=none;html=1;hachureGap=4;fontFamily=Helvetica;fontSize=15;entryX=0.458;entryY=0.96;entryDx=0;entryDy=0;exitX=0.482;exitY=0.009;exitDx=0;exitDy=0;entryPerimeter=0;shadow=0;exitPerimeter=0;" parent="1" source="6" target="5" edge="1">
                    <mxGeometry width="50" height="50" relative="1" as="geometry">
                        <mxPoint x="365" y="480" as="sourcePoint"/>
                        <mxPoint x="360" y="410" as="targetPoint"/>
                    </mxGeometry>
                </mxCell>
                <mxCell id="61" value="" style="endArrow=none;html=1;hachureGap=4;fontFamily=Helvetica;fontSize=15;entryX=0.517;entryY=0.953;entryDx=0;entryDy=0;entryPerimeter=0;shadow=0;exitX=0.537;exitY=0.023;exitDx=0;exitDy=0;exitPerimeter=0;" parent="1" source="6" target="5" edge="1">
                    <mxGeometry width="50" height="50" relative="1" as="geometry">
                        <mxPoint x="357" y="631" as="sourcePoint"/>
                        <mxPoint x="365" y="560" as="targetPoint"/>
                    </mxGeometry>
                </mxCell>
                <mxCell id="66" value="" style="endArrow=none;html=1;hachureGap=4;fontFamily=Helvetica;fontSize=15;entryX=1;entryY=0.5;entryDx=0;entryDy=0;exitX=0;exitY=0.5;exitDx=0;exitDy=0;shadow=0;" parent="1" source="37" target="36" edge="1">
                    <mxGeometry width="50" height="50" relative="1" as="geometry">
                        <mxPoint x="665" y="700" as="sourcePoint"/>
                        <mxPoint x="660" y="640" as="targetPoint"/>
                    </mxGeometry>
                </mxCell>
                <mxCell id="88" style="edgeStyle=none;hachureGap=4;html=1;entryX=0.5;entryY=1;entryDx=0;entryDy=0;fontFamily=Helvetica;fontSize=17;fontColor=#990000;shadow=0;" parent="1" source="72" target="83" edge="1">
                    <mxGeometry relative="1" as="geometry"/>
                </mxCell>
                <mxCell id="89" style="edgeStyle=none;hachureGap=4;html=1;fontFamily=Helvetica;fontSize=17;fontColor=#990000;shadow=0;" parent="1" source="72" target="84" edge="1">
                    <mxGeometry relative="1" as="geometry"/>
                </mxCell>
                <mxCell id="90" style="edgeStyle=none;hachureGap=4;html=1;fontFamily=Helvetica;fontSize=17;fontColor=#990000;shadow=0;" parent="1" source="72" target="85" edge="1">
                    <mxGeometry relative="1" as="geometry"/>
                </mxCell>
                <mxCell id="91" style="edgeStyle=none;hachureGap=4;html=1;entryX=0.579;entryY=1.007;entryDx=0;entryDy=0;entryPerimeter=0;fontFamily=Helvetica;fontSize=17;fontColor=#990000;shadow=0;" parent="1" source="72" target="87" edge="1">
                    <mxGeometry relative="1" as="geometry"/>
                </mxCell>
                <mxCell id="92" style="edgeStyle=none;hachureGap=4;html=1;entryX=0.5;entryY=1;entryDx=0;entryDy=0;fontFamily=Helvetica;fontSize=17;fontColor=#990000;shadow=0;" parent="1" source="72" target="86" edge="1">
                    <mxGeometry relative="1" as="geometry"/>
                </mxCell>
                <mxCell id="72" value="Water_tank" style="rounded=1;whiteSpace=wrap;html=1;hachureGap=4;fontFamily=Helvetica;fontSize=20;shadow=0;" parent="1" vertex="1">
                    <mxGeometry x="-440" y="340" width="120" height="60" as="geometry"/>
                </mxCell>
                <mxCell id="73" value="have" style="rhombus;whiteSpace=wrap;html=1;hachureGap=4;fontFamily=Helvetica;fontSize=20;rounded=1;shadow=0;" parent="1" vertex="1">
                    <mxGeometry x="-50" y="330" width="80" height="80" as="geometry"/>
                </mxCell>
                <mxCell id="74" value="1" style="text;html=1;align=center;verticalAlign=middle;resizable=0;points=[];autosize=1;strokeColor=none;fillColor=none;fontSize=20;fontFamily=Helvetica;hachureGap=4;rounded=1;shadow=0;" parent="1" vertex="1">
                    <mxGeometry x="230" y="340" width="30" height="40" as="geometry"/>
                </mxCell>
                <mxCell id="75" value="M" style="text;html=1;align=center;verticalAlign=middle;resizable=0;points=[];autosize=1;strokeColor=none;fillColor=none;fontSize=20;fontFamily=Helvetica;hachureGap=4;rounded=1;shadow=0;" parent="1" vertex="1">
                    <mxGeometry x="-290" y="330" width="40" height="40" as="geometry"/>
                </mxCell>
                <mxCell id="76" value="" style="endArrow=none;html=1;hachureGap=4;fontFamily=Helvetica;fontSize=15;entryX=0;entryY=0.5;entryDx=0;entryDy=0;shadow=0;" parent="1" source="73" target="4" edge="1">
                    <mxGeometry width="50" height="50" relative="1" as="geometry">
                        <mxPoint x="365" y="470" as="sourcePoint"/>
                        <mxPoint x="360" y="410" as="targetPoint"/>
                    </mxGeometry>
                </mxCell>
                <mxCell id="77" value="" style="endArrow=none;html=1;hachureGap=4;fontFamily=Helvetica;fontSize=15;exitX=0.065;exitY=0.572;exitDx=0;exitDy=0;exitPerimeter=0;entryX=1.017;entryY=0.605;entryDx=0;entryDy=0;entryPerimeter=0;shadow=0;" parent="1" source="73" target="72" edge="1">
                    <mxGeometry width="50" height="50" relative="1" as="geometry">
                        <mxPoint x="300" y="670" as="sourcePoint"/>
                        <mxPoint x="-310" y="370" as="targetPoint"/>
                    </mxGeometry>
                </mxCell>
                <mxCell id="78" value="" style="endArrow=none;html=1;hachureGap=4;fontFamily=Helvetica;fontSize=15;exitX=0.06;exitY=0.468;exitDx=0;exitDy=0;exitPerimeter=0;shadow=0;" parent="1" source="73" target="72" edge="1">
                    <mxGeometry width="50" height="50" relative="1" as="geometry">
                        <mxPoint x="-40" y="385.03999999999996" as="sourcePoint"/>
                        <mxPoint x="-295" y="385" as="targetPoint"/>
                    </mxGeometry>
                </mxCell>
                <mxCell id="80" value="1" style="text;html=1;align=center;verticalAlign=middle;resizable=0;points=[];autosize=1;strokeColor=none;fillColor=none;fontSize=20;fontFamily=Helvetica;hachureGap=4;rounded=1;shadow=0;" parent="1" vertex="1">
                    <mxGeometry x="180" y="840" width="30" height="40" as="geometry"/>
                </mxCell>
                <mxCell id="82" value="M" style="text;html=1;align=center;verticalAlign=middle;resizable=0;points=[];autosize=1;strokeColor=none;fillColor=none;fontSize=20;fontFamily=Helvetica;hachureGap=4;rounded=1;shadow=0;" parent="1" vertex="1">
                    <mxGeometry x="305" y="680" width="40" height="40" as="geometry"/>
                </mxCell>
                <mxCell id="83" value="&lt;font style=&quot;font-size: 17px;&quot;&gt;Water_tank_id&lt;/font&gt;" style="ellipse;whiteSpace=wrap;html=1;hachureGap=4;fontFamily=Helvetica;fontSize=15;strokeColor=#990000;shadow=0;" parent="1" vertex="1">
                    <mxGeometry x="-700" y="200" width="150" height="80" as="geometry"/>
                </mxCell>
                <mxCell id="84" value="amount&amp;nbsp;" style="ellipse;whiteSpace=wrap;html=1;hachureGap=4;fontFamily=Helvetica;fontSize=20;rounded=1;shadow=0;" parent="1" vertex="1">
                    <mxGeometry x="-620" y="100" width="120" height="80" as="geometry"/>
                </mxCell>
                <mxCell id="85" value="Minimum" style="ellipse;whiteSpace=wrap;html=1;hachureGap=4;fontFamily=Helvetica;fontSize=20;rounded=1;shadow=0;" parent="1" vertex="1">
                    <mxGeometry x="-480" y="60" width="120" height="80" as="geometry"/>
                </mxCell>
                <mxCell id="86" value="Maximum" style="ellipse;whiteSpace=wrap;html=1;hachureGap=4;fontFamily=Helvetica;fontSize=20;rounded=1;shadow=0;" parent="1" vertex="1">
                    <mxGeometry x="-340" y="110" width="120" height="80" as="geometry"/>
                </mxCell>
                <mxCell id="87" value="name" style="ellipse;whiteSpace=wrap;html=1;hachureGap=4;fontFamily=Helvetica;fontSize=20;rounded=1;shadow=0;" parent="1" vertex="1">
                    <mxGeometry x="-300" y="210" width="120" height="80" as="geometry"/>
                </mxCell>
                <mxCell id="93" value="" style="endArrow=none;html=1;hachureGap=4;fontFamily=Helvetica;fontSize=15;entryX=1;entryY=0.5;entryDx=0;entryDy=0;shadow=0;exitX=0.548;exitY=0.965;exitDx=0;exitDy=0;exitPerimeter=0;" parent="1" source="73" target="96" edge="1">
                    <mxGeometry width="50" height="50" relative="1" as="geometry">
                        <mxPoint x="-10" y="410" as="sourcePoint"/>
                        <mxPoint x="-5" y="570" as="targetPoint"/>
                        <Array as="points">
                            <mxPoint x="-7" y="490"/>
                        </Array>
                    </mxGeometry>
                </mxCell>
                <mxCell id="94" value="" style="endArrow=none;html=1;hachureGap=4;fontFamily=Helvetica;fontSize=15;entryX=1.002;entryY=0.443;entryDx=0;entryDy=0;shadow=0;entryPerimeter=0;exitX=0.455;exitY=0.962;exitDx=0;exitDy=0;exitPerimeter=0;" parent="1" source="73" target="96" edge="1">
                    <mxGeometry width="50" height="50" relative="1" as="geometry">
                        <mxPoint x="-10" y="410" as="sourcePoint"/>
                        <mxPoint x="-10" y="570" as="targetPoint"/>
                        <Array as="points">
                            <mxPoint x="-14" y="487"/>
                        </Array>
                    </mxGeometry>
                </mxCell>
                <mxCell id="95" value="M" style="text;html=1;align=center;verticalAlign=middle;resizable=0;points=[];autosize=1;strokeColor=none;fillColor=none;fontSize=20;fontFamily=Helvetica;hachureGap=4;rounded=1;shadow=0;" parent="1" vertex="1">
                    <mxGeometry x="-320" y="440" width="40" height="40" as="geometry"/>
                </mxCell>
                <mxCell id="99" value="" style="edgeStyle=none;hachureGap=4;html=1;fontFamily=Helvetica;fontSize=17;fontColor=#990000;entryX=0.5;entryY=0;entryDx=0;entryDy=0;shadow=0;" parent="1" source="96" target="102" edge="1">
                    <mxGeometry relative="1" as="geometry">
                        <mxPoint x="-400" y="590" as="targetPoint"/>
                    </mxGeometry>
                </mxCell>
                <mxCell id="103" style="edgeStyle=none;hachureGap=4;html=1;entryX=0.5;entryY=0;entryDx=0;entryDy=0;fontFamily=Helvetica;fontSize=17;fontColor=#990000;shadow=0;" parent="1" source="96" target="101" edge="1">
                    <mxGeometry relative="1" as="geometry"/>
                </mxCell>
                <mxCell id="104" style="edgeStyle=none;hachureGap=4;html=1;entryX=0.5;entryY=0;entryDx=0;entryDy=0;fontFamily=Helvetica;fontSize=17;fontColor=#990000;shadow=0;" parent="1" source="96" target="100" edge="1">
                    <mxGeometry relative="1" as="geometry"/>
                </mxCell>
                <mxCell id="96" value="Tec_Support" style="rounded=1;whiteSpace=wrap;html=1;hachureGap=4;fontFamily=Helvetica;fontSize=20;shadow=0;" parent="1" vertex="1">
                    <mxGeometry x="-470" y="460" width="140" height="60" as="geometry"/>
                </mxCell>
                <mxCell id="100" value="Massage_id" style="ellipse;whiteSpace=wrap;html=1;hachureGap=4;fontFamily=Helvetica;fontSize=20;strokeColor=#990000;shadow=0;" parent="1" vertex="1">
                    <mxGeometry x="-660" y="570" width="120" height="80" as="geometry"/>
                </mxCell>
                <mxCell id="101" value="Content" style="ellipse;whiteSpace=wrap;html=1;hachureGap=4;fontFamily=Helvetica;fontSize=20;shadow=0;" parent="1" vertex="1">
                    <mxGeometry x="-510" y="580" width="120" height="80" as="geometry"/>
                </mxCell>
                <mxCell id="102" value="data" style="ellipse;whiteSpace=wrap;html=1;hachureGap=4;fontFamily=Helvetica;fontSize=20;shadow=0;" parent="1" vertex="1">
                    <mxGeometry x="-370" y="580" width="120" height="80" as="geometry"/>
                </mxCell>
                <mxCell id="105" value="&lt;div style=&quot;text-align: center;&quot;&gt;userModel&lt;/div&gt;" style="text;whiteSpace=wrap;html=1;fontSize=20;fontFamily=Helvetica;shadow=0;" parent="1" vertex="1">
                    <mxGeometry x="910" y="35" width="110" height="50" as="geometry"/>
                </mxCell>
                <mxCell id="131" style="edgeStyle=none;hachureGap=4;html=1;entryX=0.5;entryY=0;entryDx=0;entryDy=0;fontFamily=Helvetica;fontSize=16;shadow=0;exitX=0.5;exitY=1;exitDx=0;exitDy=0;" parent="1" source="106" target="123" edge="1">
                    <mxGeometry relative="1" as="geometry"/>
                </mxCell>
                <mxCell id="151" style="edgeStyle=none;hachureGap=4;html=1;entryX=1;entryY=0.5;entryDx=0;entryDy=0;fontFamily=Helvetica;fontSize=16;shadow=0;" parent="1" source="106" target="143" edge="1">
                    <mxGeometry relative="1" as="geometry">
                        <Array as="points">
                            <mxPoint x="1880" y="170"/>
                            <mxPoint x="1910" y="460"/>
                        </Array>
                    </mxGeometry>
                </mxCell>
                <mxCell id="159" style="edgeStyle=none;hachureGap=4;html=1;fontFamily=Helvetica;fontSize=16;shadow=0;" parent="1" source="106" target="156" edge="1">
                    <mxGeometry relative="1" as="geometry">
                        <Array as="points">
                            <mxPoint x="880" y="110"/>
                            <mxPoint x="880" y="650"/>
                            <mxPoint x="1110" y="650"/>
                            <mxPoint x="1330" y="650"/>
                        </Array>
                    </mxGeometry>
                </mxCell>
                <mxCell id="106" value="userId" style="rounded=0;whiteSpace=wrap;html=1;hachureGap=4;fontFamily=Helvetica;fontSize=20;fillColor=#a20025;fontColor=#ffffff;strokeColor=#6F0000;shadow=0;" parent="1" vertex="1">
                    <mxGeometry x="916" y="90" width="120" height="30" as="geometry"/>
                </mxCell>
                <mxCell id="107" value="userImg" style="rounded=0;whiteSpace=wrap;html=1;hachureGap=4;fontFamily=Helvetica;fontSize=20;shadow=0;" parent="1" vertex="1">
                    <mxGeometry x="1276" y="90" width="120" height="30" as="geometry"/>
                </mxCell>
                <mxCell id="108" value="address" style="rounded=0;whiteSpace=wrap;html=1;hachureGap=4;fontFamily=Helvetica;fontSize=20;shadow=0;" parent="1" vertex="1">
                    <mxGeometry x="1391" y="90" width="120" height="30" as="geometry"/>
                </mxCell>
                <mxCell id="109" value="role" style="rounded=0;whiteSpace=wrap;html=1;hachureGap=4;fontFamily=Helvetica;fontSize=20;shadow=0;" parent="1" vertex="1">
                    <mxGeometry x="1511" y="90" width="120" height="30" as="geometry"/>
                </mxCell>
                <mxCell id="111" value="email" style="rounded=0;whiteSpace=wrap;html=1;hachureGap=4;fontFamily=Helvetica;fontSize=20;shadow=0;" parent="1" vertex="1">
                    <mxGeometry x="1631" y="90" width="120" height="30" as="geometry"/>
                </mxCell>
                <mxCell id="112" value="password" style="rounded=0;whiteSpace=wrap;html=1;hachureGap=4;fontFamily=Helvetica;fontSize=20;shadow=0;" parent="1" vertex="1">
                    <mxGeometry x="1751" y="90" width="120" height="30" as="geometry"/>
                </mxCell>
                <mxCell id="113" value="verified" style="rounded=0;whiteSpace=wrap;html=1;hachureGap=4;fontFamily=Helvetica;fontSize=20;shadow=0;" parent="1" vertex="1">
                    <mxGeometry x="1871" y="90" width="120" height="30" as="geometry"/>
                </mxCell>
                <mxCell id="115" value="firstName" style="rounded=0;whiteSpace=wrap;html=1;hachureGap=4;fontFamily=Helvetica;fontSize=20;shadow=0;" parent="1" vertex="1">
                    <mxGeometry x="1036" y="90" width="120" height="30" as="geometry"/>
                </mxCell>
                <mxCell id="116" value="lastName" style="rounded=0;whiteSpace=wrap;html=1;hachureGap=4;fontFamily=Helvetica;fontSize=20;shadow=0;" parent="1" vertex="1">
                    <mxGeometry x="1156" y="90" width="120" height="30" as="geometry"/>
                </mxCell>
                <mxCell id="117" value="lastName" style="ellipse;whiteSpace=wrap;html=1;hachureGap=4;fontFamily=Helvetica;fontSize=20;rounded=1;shadow=0;" parent="1" vertex="1">
                    <mxGeometry x="320" y="35" width="120" height="80" as="geometry"/>
                </mxCell>
                <mxCell id="120" value="&amp;nbsp; &amp;nbsp; &amp;nbsp; &amp;nbsp; &amp;nbsp;plantModel" style="text;html=1;align=center;verticalAlign=middle;resizable=0;points=[];autosize=1;strokeColor=none;fillColor=none;fontSize=20;fontFamily=Helvetica;hachureGap=4;shadow=0;" parent="1" vertex="1">
                    <mxGeometry x="851.5" y="160" width="170" height="40" as="geometry"/>
                </mxCell>
                <mxCell id="122" value="plantId" style="rounded=0;whiteSpace=wrap;html=1;hachureGap=4;fontFamily=Helvetica;fontSize=20;fillColor=#a20025;fontColor=#ffffff;strokeColor=#6F0000;shadow=0;" parent="1" vertex="1">
                    <mxGeometry x="906.5" y="220" width="120" height="30" as="geometry"/>
                </mxCell>
                <mxCell id="123" value="userId" style="rounded=0;whiteSpace=wrap;html=1;hachureGap=4;fontFamily=Helvetica;fontSize=20;fillColor=#1ba1e2;fontColor=#ffffff;strokeColor=#006EAF;shadow=0;" parent="1" vertex="1">
                    <mxGeometry x="1262" y="220" width="120" height="30" as="geometry"/>
                </mxCell>
                <mxCell id="124" value="systemId" style="rounded=0;whiteSpace=wrap;html=1;hachureGap=4;fontFamily=Helvetica;fontSize=20;fillColor=#1ba1e2;fontColor=#ffffff;strokeColor=#006EAF;shadow=0;" parent="1" vertex="1">
                    <mxGeometry x="1382" y="220" width="120" height="30" as="geometry"/>
                </mxCell>
                <mxCell id="129" value="&lt;span style=&quot;font-size: 15px;&quot;&gt;humidity&lt;/span&gt;" style="rounded=0;whiteSpace=wrap;html=1;hachureGap=4;fontFamily=Helvetica;fontSize=20;shadow=0;" parent="1" vertex="1">
                    <mxGeometry x="1020" y="220" width="121" height="30" as="geometry"/>
                </mxCell>
                <mxCell id="130" value="status" style="rounded=0;whiteSpace=wrap;html=1;hachureGap=4;fontFamily=Helvetica;fontSize=20;shadow=0;" parent="1" vertex="1">
                    <mxGeometry x="1142" y="220" width="120" height="30" as="geometry"/>
                </mxCell>
                <mxCell id="132" value="System" style="text;html=1;align=center;verticalAlign=middle;resizable=0;points=[];autosize=1;strokeColor=none;fillColor=none;fontSize=20;fontFamily=Helvetica;hachureGap=4;shadow=0;" parent="1" vertex="1">
                    <mxGeometry x="906.5" y="310" width="90" height="40" as="geometry"/>
                </mxCell>
                <mxCell id="138" value="" style="edgeStyle=none;hachureGap=4;html=1;fontFamily=Helvetica;fontSize=16;entryX=0.338;entryY=1.043;entryDx=0;entryDy=0;entryPerimeter=0;shadow=0;" parent="1" source="133" target="124" edge="1">
                    <mxGeometry relative="1" as="geometry">
                        <Array as="points"/>
                    </mxGeometry>
                </mxCell>
                <mxCell id="133" value="&lt;span style=&quot;color: rgb(240, 240, 240); font-size: 15px;&quot;&gt;system_id&lt;/span&gt;" style="rounded=0;whiteSpace=wrap;html=1;hachureGap=4;fontFamily=Helvetica;fontSize=20;fillColor=#a20025;fontColor=#ffffff;strokeColor=#6F0000;shadow=0;" parent="1" vertex="1">
                    <mxGeometry x="911.5" y="370" width="120" height="30" as="geometry"/>
                </mxCell>
                <mxCell id="136" value="&lt;span style=&quot;font-size: 15px;&quot;&gt;name&lt;/span&gt;" style="rounded=0;whiteSpace=wrap;html=1;hachureGap=4;fontFamily=Helvetica;fontSize=20;shadow=0;" parent="1" vertex="1">
                    <mxGeometry x="1030" y="370" width="106.5" height="30" as="geometry"/>
                </mxCell>
                <mxCell id="137" value="&lt;span style=&quot;font-size: 15px;&quot;&gt;description&lt;/span&gt;" style="rounded=0;whiteSpace=wrap;html=1;hachureGap=4;fontFamily=Helvetica;fontSize=20;shadow=0;" parent="1" vertex="1">
                    <mxGeometry x="1137.5" y="370" width="120" height="30" as="geometry"/>
                </mxCell>
                <mxCell id="139" value="waterTank" style="text;html=1;align=center;verticalAlign=middle;resizable=0;points=[];autosize=1;strokeColor=none;fillColor=none;fontSize=20;fontFamily=Helvetica;hachureGap=4;shadow=0;" parent="1" vertex="1">
                    <mxGeometry x="919.5" y="530" width="110" height="40" as="geometry"/>
                </mxCell>
                <mxCell id="140" value="waterTankId" style="rounded=0;whiteSpace=wrap;html=1;hachureGap=4;fontFamily=Helvetica;fontSize=20;fillColor=#a20025;fontColor=#ffffff;strokeColor=#6F0000;shadow=0;" parent="1" vertex="1">
                    <mxGeometry x="916" y="590" width="120" height="30" as="geometry"/>
                </mxCell>
                <mxCell id="141" value="minmum" style="rounded=0;whiteSpace=wrap;html=1;hachureGap=4;fontFamily=Helvetica;fontSize=20;shadow=0;" parent="1" vertex="1">
                    <mxGeometry x="1397.5" y="590" width="120" height="30" as="geometry"/>
                </mxCell>
                <mxCell id="142" value="name" style="rounded=0;whiteSpace=wrap;html=1;hachureGap=4;fontFamily=Helvetica;fontSize=20;shadow=0;" parent="1" vertex="1">
                    <mxGeometry x="1036" y="590" width="120" height="30" as="geometry"/>
                </mxCell>
                <mxCell id="143" value="userId" style="rounded=0;whiteSpace=wrap;html=1;hachureGap=4;fontFamily=Helvetica;fontSize=20;fillColor=#1ba1e2;fontColor=#ffffff;strokeColor=#006EAF;shadow=0;" parent="1" vertex="1">
                    <mxGeometry x="1520.5" y="590" width="120" height="30" as="geometry"/>
                </mxCell>
                <mxCell id="147" value="amount" style="rounded=0;whiteSpace=wrap;html=1;hachureGap=4;fontFamily=Helvetica;fontSize=20;shadow=0;" parent="1" vertex="1">
                    <mxGeometry x="1157.5" y="590" width="120" height="30" as="geometry"/>
                </mxCell>
                <mxCell id="148" value="maxmum" style="rounded=0;whiteSpace=wrap;html=1;hachureGap=4;fontFamily=Helvetica;fontSize=20;shadow=0;" parent="1" vertex="1">
                    <mxGeometry x="1277.5" y="590" width="120" height="30" as="geometry"/>
                </mxCell>
                <mxCell id="152" value="support" style="text;html=1;align=center;verticalAlign=middle;resizable=0;points=[];autosize=1;strokeColor=none;fillColor=none;fontSize=20;fontFamily=Helvetica;hachureGap=4;shadow=0;" parent="1" vertex="1">
                    <mxGeometry x="910" y="650" width="90" height="40" as="geometry"/>
                </mxCell>
                <mxCell id="153" value="messageId" style="rounded=0;whiteSpace=wrap;html=1;hachureGap=4;fontFamily=Helvetica;fontSize=20;fillColor=#a20025;fontColor=#ffffff;strokeColor=#6F0000;shadow=0;" parent="1" vertex="1">
                    <mxGeometry x="916" y="710" width="120" height="30" as="geometry"/>
                </mxCell>
                <mxCell id="155" value="content" style="rounded=0;whiteSpace=wrap;html=1;hachureGap=4;fontFamily=Helvetica;fontSize=20;shadow=0;" parent="1" vertex="1">
                    <mxGeometry x="1026.5" y="710" width="120" height="30" as="geometry"/>
                </mxCell>
                <mxCell id="156" value="userId" style="rounded=0;whiteSpace=wrap;html=1;hachureGap=4;fontFamily=Helvetica;fontSize=20;fillColor=#1ba1e2;fontColor=#ffffff;strokeColor=#006EAF;shadow=0;" parent="1" vertex="1">
                    <mxGeometry x="1268" y="710" width="120" height="30" as="geometry"/>
                </mxCell>
                <mxCell id="157" value="data" style="rounded=0;whiteSpace=wrap;html=1;hachureGap=4;fontFamily=Helvetica;fontSize=20;shadow=0;" parent="1" vertex="1">
                    <mxGeometry x="1148" y="710" width="120" height="30" as="geometry"/>
                </mxCell>
                <mxCell id="160" value="duration" style="ellipse;whiteSpace=wrap;html=1;hachureGap=4;fontFamily=Helvetica;fontSize=15;shadow=0;" vertex="1" parent="1">
                    <mxGeometry x="195" y="1002.5" width="100" height="70" as="geometry"/>
                </mxCell>
                <mxCell id="161" style="edgeStyle=none;hachureGap=4;html=1;entryX=0.5;entryY=0;entryDx=0;entryDy=0;fontFamily=Helvetica;fontSize=15;fontColor=#990000;shadow=0;exitX=0.5;exitY=1;exitDx=0;exitDy=0;" edge="1" parent="1" source="36" target="160">
                    <mxGeometry relative="1" as="geometry">
                        <mxPoint x="90.66666666666652" y="930" as="sourcePoint"/>
                        <mxPoint x="10" y="1012.5" as="targetPoint"/>
                    </mxGeometry>
                </mxCell>
                <mxCell id="162" value="Irrigation_every" style="ellipse;whiteSpace=wrap;html=1;hachureGap=4;fontFamily=Helvetica;fontSize=15;shadow=0;" vertex="1" parent="1">
                    <mxGeometry x="60" y="1002.5" width="120" height="70" as="geometry"/>
                </mxCell>
                <mxCell id="163" style="edgeStyle=none;hachureGap=4;html=1;entryX=0.5;entryY=0;entryDx=0;entryDy=0;fontFamily=Helvetica;fontSize=15;fontColor=#990000;shadow=0;exitX=0.439;exitY=1.022;exitDx=0;exitDy=0;exitPerimeter=0;" edge="1" parent="1" source="36" target="162">
                    <mxGeometry relative="1" as="geometry">
                        <mxPoint x="90.66666666666652" y="930" as="sourcePoint"/>
                        <mxPoint x="10" y="1012.5" as="targetPoint"/>
                    </mxGeometry>
                </mxCell>
                <mxCell id="164" value="type" style="ellipse;whiteSpace=wrap;html=1;hachureGap=4;fontFamily=Helvetica;fontSize=15;shadow=0;" vertex="1" parent="1">
                    <mxGeometry x="325" y="1002.5" width="100" height="70" as="geometry"/>
                </mxCell>
                <mxCell id="165" value="name" style="ellipse;whiteSpace=wrap;html=1;hachureGap=4;fontFamily=Helvetica;fontSize=15;shadow=0;" vertex="1" parent="1">
                    <mxGeometry x="450" y="1002.5" width="100" height="70" as="geometry"/>
                </mxCell>
                <mxCell id="166" style="edgeStyle=none;hachureGap=4;html=1;entryX=0.5;entryY=0;entryDx=0;entryDy=0;fontFamily=Helvetica;fontSize=15;fontColor=#990000;shadow=0;exitX=0.5;exitY=1;exitDx=0;exitDy=0;" edge="1" parent="1" source="36" target="164">
                    <mxGeometry relative="1" as="geometry">
                        <mxPoint x="120" y="930" as="sourcePoint"/>
                        <mxPoint x="255" y="1012.5" as="targetPoint"/>
                    </mxGeometry>
                </mxCell>
                <mxCell id="167" style="edgeStyle=none;hachureGap=4;html=1;entryX=0.5;entryY=0;entryDx=0;entryDy=0;fontFamily=Helvetica;fontSize=15;fontColor=#990000;shadow=0;exitX=0.5;exitY=1;exitDx=0;exitDy=0;" edge="1" parent="1" target="165">
                    <mxGeometry relative="1" as="geometry">
                        <mxPoint x="112.5" y="922.5" as="sourcePoint"/>
                        <mxPoint x="377.5" y="1005" as="targetPoint"/>
                    </mxGeometry>
                </mxCell>
                <mxCell id="170" value="" style="shape=link;html=1;entryX=0;entryY=0.5;entryDx=0;entryDy=0;exitX=0.5;exitY=0;exitDx=0;exitDy=0;" edge="1" parent="1" source="36" target="5">
                    <mxGeometry width="100" relative="1" as="geometry">
                        <mxPoint x="-20" y="590" as="sourcePoint"/>
                        <mxPoint x="80" y="590" as="targetPoint"/>
                        <Array as="points">
                            <mxPoint x="110" y="500"/>
                        </Array>
                    </mxGeometry>
                </mxCell>
                <mxCell id="171" value="1" style="text;html=1;align=center;verticalAlign=middle;resizable=0;points=[];autosize=1;strokeColor=none;fillColor=none;fontSize=20;fontFamily=Helvetica;hachureGap=4;rounded=1;shadow=0;" vertex="1" parent="1">
                    <mxGeometry x="70" y="810" width="30" height="40" as="geometry"/>
                </mxCell>
                <mxCell id="179" style="edgeStyle=none;html=1;entryX=0;entryY=0.5;entryDx=0;entryDy=0;" edge="1" parent="1" source="173" target="176">
                    <mxGeometry relative="1" as="geometry">
                        <Array as="points">
                            <mxPoint x="730" y="890"/>
                        </Array>
                    </mxGeometry>
                </mxCell>
                <mxCell id="180" style="edgeStyle=none;html=1;entryX=0;entryY=0.5;entryDx=0;entryDy=0;exitX=1;exitY=0.5;exitDx=0;exitDy=0;" edge="1" parent="1" source="173" target="178">
                    <mxGeometry relative="1" as="geometry"/>
                </mxCell>
                <mxCell id="181" style="edgeStyle=none;html=1;entryX=0;entryY=0.5;entryDx=0;entryDy=0;exitX=1;exitY=0.5;exitDx=0;exitDy=0;" edge="1" parent="1" source="173" target="177">
                    <mxGeometry relative="1" as="geometry"/>
                </mxCell>
                <mxCell id="173" value="period" style="rounded=1;whiteSpace=wrap;html=1;hachureGap=4;fontFamily=Helvetica;fontSize=15;shadow=0;" vertex="1" parent="1">
                    <mxGeometry x="610" y="860" width="120" height="60" as="geometry"/>
                </mxCell>
                <mxCell id="175" value="" style="shape=link;html=1;exitX=1;exitY=0.5;exitDx=0;exitDy=0;" edge="1" parent="1" source="37" target="173">
                    <mxGeometry width="100" relative="1" as="geometry">
                        <mxPoint x="400" y="810" as="sourcePoint"/>
                        <mxPoint x="500" y="810" as="targetPoint"/>
                    </mxGeometry>
                </mxCell>
                <mxCell id="176" value="&lt;span style=&quot;font-size: 15px;&quot;&gt;start_date&lt;/span&gt;" style="ellipse;whiteSpace=wrap;html=1;hachureGap=4;fontFamily=Helvetica;fontSize=20;shadow=0;" vertex="1" parent="1">
                    <mxGeometry x="840" y="780" width="120" height="80" as="geometry"/>
                </mxCell>
                <mxCell id="177" value="&lt;span style=&quot;font-size: 15px;&quot;&gt;end_date&lt;/span&gt;" style="ellipse;whiteSpace=wrap;html=1;hachureGap=4;fontFamily=Helvetica;fontSize=20;shadow=0;" vertex="1" parent="1">
                    <mxGeometry x="840" y="980" width="120" height="80" as="geometry"/>
                </mxCell>
                <mxCell id="178" value="&lt;span style=&quot;font-size: 15px;&quot;&gt;period_id&lt;/span&gt;" style="ellipse;whiteSpace=wrap;html=1;hachureGap=4;fontFamily=Helvetica;fontSize=20;strokeColor=#990000;shadow=0;" vertex="1" parent="1">
                    <mxGeometry x="840" y="880" width="120" height="80" as="geometry"/>
                </mxCell>
                <mxCell id="182" value="" style="shape=link;html=1;exitX=0.5;exitY=1;exitDx=0;exitDy=0;entryX=0.5;entryY=0;entryDx=0;entryDy=0;" edge="1" parent="1" source="6" target="37">
                    <mxGeometry width="100" relative="1" as="geometry">
                        <mxPoint x="260" y="790" as="sourcePoint"/>
                        <mxPoint x="360" y="790" as="targetPoint"/>
                    </mxGeometry>
                </mxCell>
                <mxCell id="183" value="1" style="text;html=1;align=center;verticalAlign=middle;resizable=0;points=[];autosize=1;strokeColor=none;fillColor=none;fontSize=20;fontFamily=Helvetica;hachureGap=4;rounded=1;shadow=0;" vertex="1" parent="1">
                    <mxGeometry x="360" y="680" width="30" height="40" as="geometry"/>
                </mxCell>
                <mxCell id="184" value="1" style="text;html=1;align=center;verticalAlign=middle;resizable=0;points=[];autosize=1;strokeColor=none;fillColor=none;fontSize=20;fontFamily=Helvetica;hachureGap=4;rounded=1;shadow=0;" vertex="1" parent="1">
                    <mxGeometry x="570" y="840" width="30" height="40" as="geometry"/>
                </mxCell>
                <mxCell id="185" value="&lt;span style=&quot;font-size: 15px;&quot;&gt;Irrigation_every&lt;/span&gt;" style="rounded=0;whiteSpace=wrap;html=1;hachureGap=4;fontFamily=Helvetica;fontSize=20;shadow=0;" vertex="1" parent="1">
                    <mxGeometry x="1257.5" y="370" width="120" height="30" as="geometry"/>
                </mxCell>
                <mxCell id="186" value="&lt;span style=&quot;font-size: 15px;&quot;&gt;duration&lt;/span&gt;" style="rounded=0;whiteSpace=wrap;html=1;hachureGap=4;fontFamily=Helvetica;fontSize=20;shadow=0;" vertex="1" parent="1">
                    <mxGeometry x="1377.5" y="370" width="120" height="30" as="geometry"/>
                </mxCell>
                <mxCell id="187" value="&lt;span style=&quot;font-size: 15px;&quot;&gt;type&lt;/span&gt;" style="rounded=0;whiteSpace=wrap;html=1;hachureGap=4;fontFamily=Helvetica;fontSize=20;shadow=0;" vertex="1" parent="1">
                    <mxGeometry x="1497.5" y="370" width="120" height="30" as="geometry"/>
                </mxCell>
                <mxCell id="189" value="&lt;span style=&quot;font-size: 15px;&quot;&gt;amount_water&lt;/span&gt;" style="rounded=0;whiteSpace=wrap;html=1;hachureGap=4;fontFamily=Helvetica;fontSize=20;shadow=0;" vertex="1" parent="1">
                    <mxGeometry x="1617.5" y="370" width="120" height="30" as="geometry"/>
                </mxCell>
                <mxCell id="190" value="userId" style="rounded=0;whiteSpace=wrap;html=1;hachureGap=4;fontFamily=Helvetica;fontSize=20;fillColor=#1ba1e2;fontColor=#ffffff;strokeColor=#006EAF;shadow=0;" vertex="1" parent="1">
                    <mxGeometry x="1737.5" y="370" width="120" height="30" as="geometry"/>
                </mxCell>
                <mxCell id="191" style="edgeStyle=none;hachureGap=4;html=1;entryX=0.5;entryY=0;entryDx=0;entryDy=0;fontFamily=Helvetica;fontSize=16;shadow=0;exitX=0.5;exitY=1;exitDx=0;exitDy=0;" edge="1" parent="1" source="106" target="190">
                    <mxGeometry relative="1" as="geometry">
                        <Array as="points">
                            <mxPoint x="1790" y="200"/>
                        </Array>
                        <mxPoint x="1046" y="119.31415929203536" as="sourcePoint"/>
                        <mxPoint x="1580.9999999999995" y="510" as="targetPoint"/>
                    </mxGeometry>
                </mxCell>
                <mxCell id="192" value="&lt;font style=&quot;font-size: 18px;&quot;&gt;&lt;span style=&quot;color: rgb(240, 240, 240);&quot;&gt;period&lt;/span&gt;Id&lt;/font&gt;" style="rounded=0;whiteSpace=wrap;html=1;hachureGap=4;fontFamily=Helvetica;fontSize=20;fillColor=#a20025;fontColor=#ffffff;strokeColor=#6F0000;shadow=0;" vertex="1" parent="1">
                    <mxGeometry x="918.25" y="480" width="120" height="30" as="geometry"/>
                </mxCell>
                <mxCell id="193" value="&lt;span style=&quot;font-size: 15px;&quot;&gt;start_date&lt;/span&gt;" style="rounded=0;whiteSpace=wrap;html=1;hachureGap=4;fontFamily=Helvetica;fontSize=20;shadow=0;" vertex="1" parent="1">
                    <mxGeometry x="1038.25" y="480" width="111" height="30" as="geometry"/>
                </mxCell>
                <mxCell id="194" value="&lt;span style=&quot;font-size: 15px;&quot;&gt;end_date&lt;/span&gt;" style="rounded=0;whiteSpace=wrap;html=1;hachureGap=4;fontFamily=Helvetica;fontSize=20;shadow=0;" vertex="1" parent="1">
                    <mxGeometry x="1149.25" y="480" width="120" height="30" as="geometry"/>
                </mxCell>
                <mxCell id="195" value="&lt;font style=&quot;font-size: 24px;&quot;&gt;period&lt;/font&gt;" style="text;html=1;align=center;verticalAlign=middle;resizable=0;points=[];autosize=1;strokeColor=none;fillColor=none;fontSize=20;fontFamily=Helvetica;hachureGap=4;shadow=0;" vertex="1" parent="1">
                    <mxGeometry x="920" y="420" width="90" height="40" as="geometry"/>
                </mxCell>
                <mxCell id="196" value="plantId" style="rounded=0;whiteSpace=wrap;html=1;hachureGap=4;fontFamily=Helvetica;fontSize=20;fillColor=#1ba1e2;fontColor=#ffffff;strokeColor=#006EAF;shadow=0;" vertex="1" parent="1">
                    <mxGeometry x="1271" y="480" width="120" height="30" as="geometry"/>
                </mxCell>
                <mxCell id="197" value="&lt;span style=&quot;color: rgb(240, 240, 240);&quot;&gt;&lt;font style=&quot;font-size: 18px;&quot;&gt;system_id&lt;/font&gt;&lt;/span&gt;" style="rounded=0;whiteSpace=wrap;html=1;hachureGap=4;fontFamily=Helvetica;fontSize=20;fillColor=#1ba1e2;fontColor=#ffffff;strokeColor=#006EAF;shadow=0;" vertex="1" parent="1">
                    <mxGeometry x="1391" y="480" width="120" height="30" as="geometry"/>
                </mxCell>
            </root>
        </mxGraphModel>
    </diagram>
</mxfile>